<?xml version="1.0" encoding="UTF-8" standalone="no"?>
<!-- Created with Inkscape (http://www.inkscape.org/) -->

<svg
   xmlns:dc="http://purl.org/dc/elements/1.1/"
   xmlns:cc="http://creativecommons.org/ns#"
   xmlns:rdf="http://www.w3.org/1999/02/22-rdf-syntax-ns#"
   xmlns:svg="http://www.w3.org/2000/svg"
   xmlns="http://www.w3.org/2000/svg"
   xmlns:sodipodi="http://sodipodi.sourceforge.net/DTD/sodipodi-0.dtd"
   xmlns:inkscape="http://www.inkscape.org/namespaces/inkscape"
   id="svg2"
   version="1.1"
   inkscape:version="0.92.1 r15371"
   xml:space="preserve"
   width="477.07785"
   height="414.23151"
   viewBox="0 0 447.26051 388.34204"
   sodipodi:docname="vbpi-performance.svg"><metadata
     id="metadata8"><rdf:RDF><cc:Work
         rdf:about=""><dc:format>image/svg+xml</dc:format><dc:type
           rdf:resource="http://purl.org/dc/dcmitype/StillImage" /><dc:title /></cc:Work></rdf:RDF></metadata><defs
     id="defs6"><clipPath
       clipPathUnits="userSpaceOnUse"
       id="clipPath68"><path
         d="M -1021,-463 H 1794 V 1233 H -1021 Z"
         id="path70"
         inkscape:connector-curvature="0" /></clipPath><clipPath
       clipPathUnits="userSpaceOnUse"
       id="clipPath148"><path
         d="M 68.621875,49.16875 H 364.60448 v 271.8 H 68.621875 Z"
         id="path150"
         inkscape:connector-curvature="0" /></clipPath><clipPath
       clipPathUnits="userSpaceOnUse"
       id="clipPath158"><path
         d="M 68.621875,49.16875 H 364.60448 v 271.8 H 68.621875 Z"
         id="path160"
         inkscape:connector-curvature="0" /></clipPath><clipPath
       clipPathUnits="userSpaceOnUse"
       id="clipPath168"><path
         d="M 68.621875,49.16875 H 364.60448 v 271.8 H 68.621875 Z"
         id="path170"
         inkscape:connector-curvature="0" /></clipPath><clipPath
       clipPathUnits="userSpaceOnUse"
       id="clipPath178"><path
         d="M 68.621875,49.16875 H 364.60448 v 271.8 H 68.621875 Z"
         id="path180"
         inkscape:connector-curvature="0" /></clipPath><clipPath
       clipPathUnits="userSpaceOnUse"
       id="clipPath188"><path
         d="M 68.621875,49.16875 H 364.60448 v 271.8 H 68.621875 Z"
         id="path190"
         inkscape:connector-curvature="0" /></clipPath><clipPath
       clipPathUnits="userSpaceOnUse"
       id="clipPath290"><path
         d="M -1021,-463 H 1794 V 1233 H -1021 Z"
         id="path292"
         inkscape:connector-curvature="0" /></clipPath><clipPath
       clipPathUnits="userSpaceOnUse"
       id="clipPath370"><path
         d="m 453.39927,49.16875 h 295.98261 v 271.8 H 453.39927 Z"
         id="path372"
         inkscape:connector-curvature="0" /></clipPath><clipPath
       clipPathUnits="userSpaceOnUse"
       id="clipPath380"><path
         d="m 453.39927,49.16875 h 295.98261 v 271.8 H 453.39927 Z"
         id="path382"
         inkscape:connector-curvature="0" /></clipPath><clipPath
       clipPathUnits="userSpaceOnUse"
       id="clipPath390"><path
         d="m 453.39927,49.16875 h 295.98261 v 271.8 H 453.39927 Z"
         id="path392"
         inkscape:connector-curvature="0" /></clipPath><clipPath
       clipPathUnits="userSpaceOnUse"
       id="clipPath400"><path
         d="m 453.39927,49.16875 h 295.98261 v 271.8 H 453.39927 Z"
         id="path402"
         inkscape:connector-curvature="0" /></clipPath><clipPath
       clipPathUnits="userSpaceOnUse"
       id="clipPath410"><path
         d="m 453.39927,49.16875 h 295.98261 v 271.8 H 453.39927 Z"
         id="path412"
         inkscape:connector-curvature="0" /></clipPath><clipPath
       clipPathUnits="userSpaceOnUse"
       id="clipPath474"><path
         d="M -1021,-463 H 1794 V 1233 H -1021 Z"
         id="path476"
         inkscape:connector-curvature="0" /></clipPath><clipPath
       clipPathUnits="userSpaceOnUse"
       id="clipPath494"><path
         d="M -1021,-463 H 1794 V 1233 H -1021 Z"
         id="path496"
         inkscape:connector-curvature="0" /></clipPath><clipPath
       clipPathUnits="userSpaceOnUse"
       id="clipPath514"><path
         d="M -1021,-463 H 1794 V 1233 H -1021 Z"
         id="path516"
         inkscape:connector-curvature="0" /></clipPath><clipPath
       clipPathUnits="userSpaceOnUse"
       id="clipPath534"><path
         d="M -1021,-463 H 1794 V 1233 H -1021 Z"
         id="path536"
         inkscape:connector-curvature="0" /></clipPath><clipPath
       clipPathUnits="userSpaceOnUse"
       id="clipPath558"><path
         d="M -1021,-463 H 1794 V 1233 H -1021 Z"
         id="path560"
         inkscape:connector-curvature="0" /></clipPath><clipPath
       clipPathUnits="userSpaceOnUse"
       id="clipPath578"><path
         d="M -1021,-463 H 1794 V 1233 H -1021 Z"
         id="path580"
         inkscape:connector-curvature="0" /></clipPath><clipPath
       clipPathUnits="userSpaceOnUse"
       id="clipPath598"><path
         d="M -1021,-463 H 1794 V 1233 H -1021 Z"
         id="path600"
         inkscape:connector-curvature="0" /></clipPath><clipPath
       clipPathUnits="userSpaceOnUse"
       id="clipPath618"><path
         d="M -1021,-463 H 1794 V 1233 H -1021 Z"
         id="path620"
         inkscape:connector-curvature="0" /></clipPath><clipPath
       clipPathUnits="userSpaceOnUse"
       id="clipPath638"><path
         d="M -1021,-463 H 1794 V 1233 H -1021 Z"
         id="path640"
         inkscape:connector-curvature="0" /></clipPath><clipPath
       clipPathUnits="userSpaceOnUse"
       id="clipPath658"><path
         d="M -1021,-463 H 1794 V 1233 H -1021 Z"
         id="path660"
         inkscape:connector-curvature="0" /></clipPath><clipPath
       clipPathUnits="userSpaceOnUse"
       id="clipPath678"><path
         d="M -1021,-463 H 1794 V 1233 H -1021 Z"
         id="path680"
         inkscape:connector-curvature="0" /></clipPath><clipPath
       clipPathUnits="userSpaceOnUse"
       id="clipPath692"><path
         d="m 849.82187,49.16875 h 290.16003 v 271.8 H 849.82187 Z"
         id="path694"
         inkscape:connector-curvature="0" /></clipPath><clipPath
       clipPathUnits="userSpaceOnUse"
       id="clipPath784"><path
         d="m 849.82187,49.16875 h 290.16003 v 271.8 H 849.82187 Z"
         id="path786"
         inkscape:connector-curvature="0" /></clipPath><clipPath
       clipPathUnits="userSpaceOnUse"
       id="clipPath794"><path
         d="m 849.82187,49.16875 h 290.16003 v 271.8 H 849.82187 Z"
         id="path796"
         inkscape:connector-curvature="0" /></clipPath><clipPath
       clipPathUnits="userSpaceOnUse"
       id="clipPath804"><path
         d="m -3.5,-3.5 h 7 v 7 h -7 z"
         id="path806"
         inkscape:connector-curvature="0" /></clipPath><clipPath
       clipPathUnits="userSpaceOnUse"
       id="clipPath816"><path
         d="m -3.5,-3.5 h 7 v 7 h -7 z"
         id="path818"
         inkscape:connector-curvature="0" /></clipPath><clipPath
       clipPathUnits="userSpaceOnUse"
       id="clipPath828"><path
         d="m -3.5,-3.5 h 7 v 7 h -7 z"
         id="path830"
         inkscape:connector-curvature="0" /></clipPath><clipPath
       clipPathUnits="userSpaceOnUse"
       id="clipPath840"><path
         d="m -3.5,-3.5 h 7 v 7 h -7 z"
         id="path842"
         inkscape:connector-curvature="0" /></clipPath><clipPath
       clipPathUnits="userSpaceOnUse"
       id="clipPath852"><path
         d="m -3.5,-3.5 h 7 v 7 h -7 z"
         id="path854"
         inkscape:connector-curvature="0" /></clipPath><clipPath
       clipPathUnits="userSpaceOnUse"
       id="clipPath864"><path
         d="m -3.5,-3.5 h 7 v 7 h -7 z"
         id="path866"
         inkscape:connector-curvature="0" /></clipPath><clipPath
       clipPathUnits="userSpaceOnUse"
       id="clipPath876"><path
         d="m -3.5,-3.5 h 7 v 7 h -7 z"
         id="path878"
         inkscape:connector-curvature="0" /></clipPath><clipPath
       clipPathUnits="userSpaceOnUse"
       id="clipPath888"><path
         d="m -3.5,-3.5 h 7 v 7 h -7 z"
         id="path890"
         inkscape:connector-curvature="0" /></clipPath><clipPath
       clipPathUnits="userSpaceOnUse"
       id="clipPath900"><path
         d="m -3.5,-3.5 h 7 v 7 h -7 z"
         id="path902"
         inkscape:connector-curvature="0" /></clipPath><clipPath
       clipPathUnits="userSpaceOnUse"
       id="clipPath912"><path
         d="m -3.5,-3.5 h 7 v 7 h -7 z"
         id="path914"
         inkscape:connector-curvature="0" /></clipPath><clipPath
       clipPathUnits="userSpaceOnUse"
       id="clipPath924"><path
         d="m -3.5,-3.5 h 7 v 7 h -7 z"
         id="path926"
         inkscape:connector-curvature="0" /></clipPath><clipPath
       clipPathUnits="userSpaceOnUse"
       id="clipPath936"><path
         d="m -3.5,-3.5 h 7 v 7 h -7 z"
         id="path938"
         inkscape:connector-curvature="0" /></clipPath><clipPath
       clipPathUnits="userSpaceOnUse"
       id="clipPath948"><path
         d="m -3.5,-3.5 h 7 v 7 h -7 z"
         id="path950"
         inkscape:connector-curvature="0" /></clipPath><clipPath
       clipPathUnits="userSpaceOnUse"
       id="clipPath960"><path
         d="m -3.5,-3.5 h 7 v 7 h -7 z"
         id="path962"
         inkscape:connector-curvature="0" /></clipPath><clipPath
       clipPathUnits="userSpaceOnUse"
       id="clipPath972"><path
         d="m -3.5,-3.5 h 7 v 7 h -7 z"
         id="path974"
         inkscape:connector-curvature="0" /></clipPath><clipPath
       clipPathUnits="userSpaceOnUse"
       id="clipPath984"><path
         d="m -3.5,-3.5 h 7 v 7 h -7 z"
         id="path986"
         inkscape:connector-curvature="0" /></clipPath><clipPath
       clipPathUnits="userSpaceOnUse"
       id="clipPath996"><path
         d="m -3.5,-3.5 h 7 v 7 h -7 z"
         id="path998"
         inkscape:connector-curvature="0" /></clipPath><clipPath
       clipPathUnits="userSpaceOnUse"
       id="clipPath1008"><path
         d="m -3.5,-3.5 h 7 v 7 h -7 z"
         id="path1010"
         inkscape:connector-curvature="0" /></clipPath><clipPath
       clipPathUnits="userSpaceOnUse"
       id="clipPath1020"><path
         d="m -3.5,-3.5 h 7 v 7 h -7 z"
         id="path1022"
         inkscape:connector-curvature="0" /></clipPath><clipPath
       clipPathUnits="userSpaceOnUse"
       id="clipPath1032"><path
         d="m -3.5,-3.5 h 7 v 7 h -7 z"
         id="path1034"
         inkscape:connector-curvature="0" /></clipPath><clipPath
       clipPathUnits="userSpaceOnUse"
       id="clipPath1044"><path
         d="m -3.5,-3.5 h 7 v 7 h -7 z"
         id="path1046"
         inkscape:connector-curvature="0" /></clipPath><clipPath
       clipPathUnits="userSpaceOnUse"
       id="clipPath1056"><path
         d="m -3.5,-3.5 h 7 v 7 h -7 z"
         id="path1058"
         inkscape:connector-curvature="0" /></clipPath><clipPath
       clipPathUnits="userSpaceOnUse"
       id="clipPath1068"><path
         d="m -3.5,-3.5 h 7 v 7 h -7 z"
         id="path1070"
         inkscape:connector-curvature="0" /></clipPath><clipPath
       clipPathUnits="userSpaceOnUse"
       id="clipPath1080"><path
         d="m -3.5,-3.5 h 7 v 7 h -7 z"
         id="path1082"
         inkscape:connector-curvature="0" /></clipPath><clipPath
       clipPathUnits="userSpaceOnUse"
       id="clipPath1092"><path
         d="m -3.5,-3.5 h 7 v 7 h -7 z"
         id="path1094"
         inkscape:connector-curvature="0" /></clipPath><clipPath
       clipPathUnits="userSpaceOnUse"
       id="clipPath1104"><path
         d="m -3.5,-3.5 h 7 v 7 h -7 z"
         id="path1106"
         inkscape:connector-curvature="0" /></clipPath><clipPath
       clipPathUnits="userSpaceOnUse"
       id="clipPath1116"><path
         d="m -3.5,-3.5 h 7 v 7 h -7 z"
         id="path1118"
         inkscape:connector-curvature="0" /></clipPath><clipPath
       clipPathUnits="userSpaceOnUse"
       id="clipPath1128"><path
         d="m -3.5,-3.5 h 7 v 7 h -7 z"
         id="path1130"
         inkscape:connector-curvature="0" /></clipPath><clipPath
       clipPathUnits="userSpaceOnUse"
       id="clipPath1140"><path
         d="m -3.5,-3.5 h 7 v 7 h -7 z"
         id="path1142"
         inkscape:connector-curvature="0" /></clipPath><clipPath
       clipPathUnits="userSpaceOnUse"
       id="clipPath1152"><path
         d="m -3.5,-3.5 h 7 v 7 h -7 z"
         id="path1154"
         inkscape:connector-curvature="0" /></clipPath><clipPath
       clipPathUnits="userSpaceOnUse"
       id="clipPath1164"><path
         d="m -3.5,-3.5 h 7 v 7 h -7 z"
         id="path1166"
         inkscape:connector-curvature="0" /></clipPath><clipPath
       clipPathUnits="userSpaceOnUse"
       id="clipPath1176"><path
         d="m -3.5,-3.5 h 7 v 7 h -7 z"
         id="path1178"
         inkscape:connector-curvature="0" /></clipPath><clipPath
       clipPathUnits="userSpaceOnUse"
       id="clipPath1188"><path
         d="m -3.5,-3.5 h 7 v 7 h -7 z"
         id="path1190"
         inkscape:connector-curvature="0" /></clipPath><clipPath
       clipPathUnits="userSpaceOnUse"
       id="clipPath1200"><path
         d="m -3.5,-3.5 h 7 v 7 h -7 z"
         id="path1202"
         inkscape:connector-curvature="0" /></clipPath><clipPath
       clipPathUnits="userSpaceOnUse"
       id="clipPath1212"><path
         d="m -3.5,-3.5 h 7 v 7 h -7 z"
         id="path1214"
         inkscape:connector-curvature="0" /></clipPath><clipPath
       clipPathUnits="userSpaceOnUse"
       id="clipPath1224"><path
         d="m -3.5,-3.5 h 7 v 7 h -7 z"
         id="path1226"
         inkscape:connector-curvature="0" /></clipPath><clipPath
       clipPathUnits="userSpaceOnUse"
       id="clipPath1236"><path
         d="m -3.5,-3.5 h 7 v 7 h -7 z"
         id="path1238"
         inkscape:connector-curvature="0" /></clipPath><clipPath
       clipPathUnits="userSpaceOnUse"
       id="clipPath1248"><path
         d="m -3.5,-3.5 h 7 v 7 h -7 z"
         id="path1250"
         inkscape:connector-curvature="0" /></clipPath><clipPath
       clipPathUnits="userSpaceOnUse"
       id="clipPath1260"><path
         d="m -3.5,-3.5 h 7 v 7 h -7 z"
         id="path1262"
         inkscape:connector-curvature="0" /></clipPath><clipPath
       clipPathUnits="userSpaceOnUse"
       id="clipPath1272"><path
         d="m -3.5,-3.5 h 7 v 7 h -7 z"
         id="path1274"
         inkscape:connector-curvature="0" /></clipPath><clipPath
       clipPathUnits="userSpaceOnUse"
       id="clipPath1284"><path
         d="m -3.5,-3.5 h 7 v 7 h -7 z"
         id="path1286"
         inkscape:connector-curvature="0" /></clipPath><clipPath
       clipPathUnits="userSpaceOnUse"
       id="clipPath1296"><path
         d="m -3.5,-3.5 h 7 v 7 h -7 z"
         id="path1298"
         inkscape:connector-curvature="0" /></clipPath></defs><sodipodi:namedview
     pagecolor="#ffffff"
     bordercolor="#666666"
     borderopacity="1"
     objecttolerance="10"
     gridtolerance="10"
     guidetolerance="10"
     inkscape:pageopacity="0"
     inkscape:pageshadow="2"
     inkscape:window-width="5120"
     inkscape:window-height="2816"
     id="namedview4"
     showgrid="false"
     fit-margin-top="0"
     fit-margin-left="0"
     fit-margin-right="0"
     fit-margin-bottom="0"
     inkscape:zoom="6.0666559"
     inkscape:cx="238.53893"
     inkscape:cy="207.11575"
     inkscape:window-x="0"
     inkscape:window-y="32"
     inkscape:window-maximized="1"
     inkscape:current-layer="g10" /><g
     id="g10"
     inkscape:groupmode="layer"
     inkscape:label="sbn_vi_DS1_3plot_01_with_mcmc"
     transform="matrix(1.25,0,0,-1.25,-489.96685,401.71094)"><path
       inkscape:connector-curvature="0"
       id="path238"
       style="fill:#000000;fill-opacity:1;fill-rule:nonzero;stroke:#000000;stroke-width:0.80000001;stroke-linecap:butt;stroke-linejoin:round;stroke-miterlimit:10;stroke-dasharray:none;stroke-opacity:1"
       d="m 465.50089,49.16875 v -3.5" /><text
       id="text240"
       style="font-variant:normal;font-weight:normal;font-size:14px;line-height:0%;font-family:'DejaVu Sans';-inkscape-font-specification:DejaVuSans;writing-mode:lr-tb;fill:#000000;fill-opacity:1;fill-rule:nonzero;stroke:none"
       transform="scale(1,-1)"
       x="461.04776"
       y="-31.528126"><tspan
         id="tspan242"
         y="-31.528126"
         x="461.04776">0</tspan></text>
<path
       inkscape:connector-curvature="0"
       id="path244"
       style="fill:#000000;fill-opacity:1;fill-rule:nonzero;stroke:#000000;stroke-width:0.80000001;stroke-linecap:butt;stroke-linejoin:round;stroke-miterlimit:10;stroke-dasharray:none;stroke-opacity:1"
       d="m 533.10769,49.16875 v -3.5" /><text
       id="text246"
       style="font-variant:normal;font-weight:normal;line-height:0%;font-family:'DejaVu Sans';-inkscape-font-specification:DejaVuSans;writing-mode:lr-tb;fill:#000000;fill-opacity:1;fill-rule:nonzero;stroke:none"
       transform="scale(1,-1)"
       x="524.20142"
       y="-31.528126"><tspan
         id="tspan248"
         sodipodi:role="line"
         y="-31.528126"
         x="524.20142 533.10547"
         style="font-size:14px;line-height:1.25">50</tspan></text>
<path
       inkscape:connector-curvature="0"
       id="path250"
       style="fill:#000000;fill-opacity:1;fill-rule:nonzero;stroke:#000000;stroke-width:0.80000001;stroke-linecap:butt;stroke-linejoin:round;stroke-miterlimit:10;stroke-dasharray:none;stroke-opacity:1"
       d="m 600.7145,49.16875 v -3.5" /><text
       id="text252"
       style="font-variant:normal;font-weight:normal;line-height:0%;font-family:'DejaVu Sans';-inkscape-font-specification:DejaVuSans;writing-mode:lr-tb;fill:#000000;fill-opacity:1;fill-rule:nonzero;stroke:none"
       transform="scale(1,-1)"
       x="587.3551"
       y="-31.528126"><tspan
         id="tspan254"
         sodipodi:role="line"
         y="-31.528126"
         x="587.3551 596.25916 605.16315"
         style="font-size:14px;line-height:1.25">100</tspan></text>
<path
       inkscape:connector-curvature="0"
       id="path256"
       style="fill:#000000;fill-opacity:1;fill-rule:nonzero;stroke:#000000;stroke-width:0.80000001;stroke-linecap:butt;stroke-linejoin:round;stroke-miterlimit:10;stroke-dasharray:none;stroke-opacity:1"
       d="m 668.32131,49.16875 v -3.5" /><text
       id="text258"
       style="font-variant:normal;font-weight:normal;line-height:0%;font-family:'DejaVu Sans';-inkscape-font-specification:DejaVuSans;writing-mode:lr-tb;fill:#000000;fill-opacity:1;fill-rule:nonzero;stroke:none"
       transform="scale(1,-1)"
       x="654.96191"
       y="-31.528126"><tspan
         id="tspan260"
         sodipodi:role="line"
         y="-31.528126"
         x="654.96191 663.86597 672.76996"
         style="font-size:14px;line-height:1.25">150</tspan></text>
<path
       inkscape:connector-curvature="0"
       id="path262"
       style="fill:#000000;fill-opacity:1;fill-rule:nonzero;stroke:#000000;stroke-width:0.80000001;stroke-linecap:butt;stroke-linejoin:round;stroke-miterlimit:10;stroke-dasharray:none;stroke-opacity:1"
       d="m 735.92812,49.16875 v -3.5" /><text
       id="text264"
       style="font-variant:normal;font-weight:normal;line-height:0%;font-family:'DejaVu Sans';-inkscape-font-specification:DejaVuSans;writing-mode:lr-tb;fill:#000000;fill-opacity:1;fill-rule:nonzero;stroke:none"
       transform="scale(1,-1)"
       x="722.56873"
       y="-31.528126"><tspan
         id="tspan266"
         sodipodi:role="line"
         y="-31.528126"
         x="722.56873 731.47278 740.37677"
         style="font-size:14px;line-height:1.25">200</tspan></text>
<text
       id="text268"
       style="font-variant:normal;font-weight:normal;line-height:0%;font-family:'DejaVu Sans';-inkscape-font-specification:DejaVuSans;writing-mode:lr-tb;fill:#000000;fill-opacity:1;fill-rule:nonzero;stroke:none"
       transform="scale(1,-1)"
       x="511.62494"
       y="-12.55"><tspan
         id="tspan270"
         sodipodi:role="line"
         y="-12.55"
         x="511.62494"
         style="font-style:normal;font-variant:normal;font-weight:normal;font-stretch:normal;font-size:18px;line-height:1.25;font-family:Lato;-inkscape-font-specification:Lato">Thousand Iterations</tspan></text>
<path
       inkscape:connector-curvature="0"
       id="path272"
       style="fill:#000000;fill-opacity:1;fill-rule:nonzero;stroke:#000000;stroke-width:0.80000001;stroke-linecap:butt;stroke-linejoin:round;stroke-miterlimit:10;stroke-dasharray:none;stroke-opacity:1"
       d="m 453.39927,78.214233 h -3.5" /><g
       transform="translate(413.39927,72.667358)"
       id="g274"><text
         id="text276"
         style="font-variant:normal;font-weight:normal;line-height:0%;font-family:'DejaVu Sans';-inkscape-font-specification:DejaVuSans;writing-mode:lr-tb;fill:#000000;fill-opacity:1;fill-rule:nonzero;stroke:none"
         transform="matrix(1,0,0,-1,0,0.4984375)"><tspan
           id="tspan278"
           sodipodi:role="line"
           y="0"
           x="0 8.9072266"
           style="font-size:14px;line-height:1.25">10</tspan></text>
<text
         id="text280"
         style="font-variant:normal;font-weight:normal;font-size:9.80000019px;line-height:0%;font-family:'DejaVu Sans';-inkscape-font-specification:DejaVuSans;writing-mode:lr-tb;fill:#000000;fill-opacity:1;fill-rule:nonzero;stroke:none"
         transform="matrix(1,0,0,-1,26.159766,5.8578125)"><tspan
           id="tspan282"
           y="0"
           x="0">1</tspan></text>
<g
         transform="matrix(0.0098,0,0,0.0098,17.948437,5.8578125)"
         id="g284"><g
           id="g286"><g
             clip-path="url(#clipPath290)"
             id="g288"><path
               inkscape:connector-curvature="0"
               id="path294"
               style="fill:#000000;fill-opacity:1;fill-rule:nonzero;stroke:none"
               d="M 106,355 H 732 V 272 H 106 v 83" /></g></g></g></g><path
       inkscape:connector-curvature="0"
       id="path296"
       style="fill:#000000;fill-opacity:1;fill-rule:nonzero;stroke:#000000;stroke-width:0.80000001;stroke-linecap:butt;stroke-linejoin:round;stroke-miterlimit:10;stroke-dasharray:none;stroke-opacity:1"
       d="m 453.39927,179.19022 h -3.5" /><g
       transform="translate(421.39927,173.64335)"
       id="g298"><text
         id="text300"
         style="font-variant:normal;font-weight:normal;line-height:0%;font-family:'DejaVu Sans';-inkscape-font-specification:DejaVuSans;writing-mode:lr-tb;fill:#000000;fill-opacity:1;fill-rule:nonzero;stroke:none"
         transform="matrix(1,0,0,-1,0,0.3671875)"><tspan
           id="tspan302"
           sodipodi:role="line"
           y="0"
           x="0 8.9072266"
           style="font-size:14px;line-height:1.25">10</tspan></text>
<text
         id="text304"
         style="font-variant:normal;font-weight:normal;font-size:9.80000019px;line-height:0%;font-family:'DejaVu Sans';-inkscape-font-specification:DejaVuSans;writing-mode:lr-tb;fill:#000000;fill-opacity:1;fill-rule:nonzero;stroke:none"
         transform="matrix(1,0,0,-1,17.948437,5.7265625)"><tspan
           id="tspan306"
           y="0"
           x="0">0</tspan></text>
</g><path
       inkscape:connector-curvature="0"
       id="path308"
       style="fill:#000000;fill-opacity:1;fill-rule:nonzero;stroke:#000000;stroke-width:0.80000001;stroke-linecap:butt;stroke-linejoin:round;stroke-miterlimit:10;stroke-dasharray:none;stroke-opacity:1"
       d="m 453.39927,280.16621 h -3.5" /><g
       transform="translate(421.39927,274.61934)"
       id="g310"><text
         id="text312"
         style="font-variant:normal;font-weight:normal;line-height:0%;font-family:'DejaVu Sans';-inkscape-font-specification:DejaVuSans;writing-mode:lr-tb;fill:#000000;fill-opacity:1;fill-rule:nonzero;stroke:none"
         transform="matrix(1,0,0,-1,0,0.4984375)"><tspan
           id="tspan314"
           sodipodi:role="line"
           y="0"
           x="0 8.9072266"
           style="font-size:14px;line-height:1.25">10</tspan></text>
<text
         id="text316"
         style="font-variant:normal;font-weight:normal;font-size:9.80000019px;line-height:0%;font-family:'DejaVu Sans';-inkscape-font-specification:DejaVuSans;writing-mode:lr-tb;fill:#000000;fill-opacity:1;fill-rule:nonzero;stroke:none"
         transform="matrix(1,0,0,-1,17.948437,5.8578125)"><tspan
           id="tspan318"
           y="0"
           x="0">1</tspan></text>
</g><path
       inkscape:connector-curvature="0"
       id="path320"
       style="fill:#000000;fill-opacity:1;fill-rule:nonzero;stroke:#000000;stroke-width:0.60000002;stroke-linecap:butt;stroke-linejoin:round;stroke-miterlimit:10;stroke-dasharray:none;stroke-opacity:1"
       d="m 453.39927,55.812836 h -2" /><path
       inkscape:connector-curvature="0"
       id="path322"
       style="fill:#000000;fill-opacity:1;fill-rule:nonzero;stroke:#000000;stroke-width:0.60000002;stroke-linecap:butt;stroke-linejoin:round;stroke-miterlimit:10;stroke-dasharray:none;stroke-opacity:1"
       d="m 453.39927,62.572854 h -2" /><path
       inkscape:connector-curvature="0"
       id="path324"
       style="fill:#000000;fill-opacity:1;fill-rule:nonzero;stroke:#000000;stroke-width:0.60000002;stroke-linecap:butt;stroke-linejoin:round;stroke-miterlimit:10;stroke-dasharray:none;stroke-opacity:1"
       d="m 453.39927,68.428648 h -2" /><path
       inkscape:connector-curvature="0"
       id="path326"
       style="fill:#000000;fill-opacity:1;fill-rule:nonzero;stroke:#000000;stroke-width:0.60000002;stroke-linecap:butt;stroke-linejoin:round;stroke-miterlimit:10;stroke-dasharray:none;stroke-opacity:1"
       d="m 453.39927,73.593825 h -2" /><path
       inkscape:connector-curvature="0"
       id="path328"
       style="fill:#000000;fill-opacity:1;fill-rule:nonzero;stroke:#000000;stroke-width:0.60000002;stroke-linecap:butt;stroke-linejoin:round;stroke-miterlimit:10;stroke-dasharray:none;stroke-opacity:1"
       d="m 453.39927,108.61104 h -2" /><path
       inkscape:connector-curvature="0"
       id="path330"
       style="fill:#000000;fill-opacity:1;fill-rule:nonzero;stroke:#000000;stroke-width:0.60000002;stroke-linecap:butt;stroke-linejoin:round;stroke-miterlimit:10;stroke-dasharray:none;stroke-opacity:1"
       d="m 453.39927,126.39202 h -2" /><path
       inkscape:connector-curvature="0"
       id="path332"
       style="fill:#000000;fill-opacity:1;fill-rule:nonzero;stroke:#000000;stroke-width:0.60000002;stroke-linecap:butt;stroke-linejoin:round;stroke-miterlimit:10;stroke-dasharray:none;stroke-opacity:1"
       d="m 453.39927,139.00784 h -2" /><path
       inkscape:connector-curvature="0"
       id="path334"
       style="fill:#000000;fill-opacity:1;fill-rule:nonzero;stroke:#000000;stroke-width:0.60000002;stroke-linecap:butt;stroke-linejoin:round;stroke-miterlimit:10;stroke-dasharray:none;stroke-opacity:1"
       d="m 453.39927,148.79342 h -2" /><path
       inkscape:connector-curvature="0"
       id="path336"
       style="fill:#000000;fill-opacity:1;fill-rule:nonzero;stroke:#000000;stroke-width:0.60000002;stroke-linecap:butt;stroke-linejoin:round;stroke-miterlimit:10;stroke-dasharray:none;stroke-opacity:1"
       d="m 453.39927,156.78883 h -2" /><path
       inkscape:connector-curvature="0"
       id="path338"
       style="fill:#000000;fill-opacity:1;fill-rule:nonzero;stroke:#000000;stroke-width:0.60000002;stroke-linecap:butt;stroke-linejoin:round;stroke-miterlimit:10;stroke-dasharray:none;stroke-opacity:1"
       d="m 453.39927,163.54884 h -2" /><path
       inkscape:connector-curvature="0"
       id="path340"
       style="fill:#000000;fill-opacity:1;fill-rule:nonzero;stroke:#000000;stroke-width:0.60000002;stroke-linecap:butt;stroke-linejoin:round;stroke-miterlimit:10;stroke-dasharray:none;stroke-opacity:1"
       d="m 453.39927,169.40464 h -2" /><path
       inkscape:connector-curvature="0"
       id="path342"
       style="fill:#000000;fill-opacity:1;fill-rule:nonzero;stroke:#000000;stroke-width:0.60000002;stroke-linecap:butt;stroke-linejoin:round;stroke-miterlimit:10;stroke-dasharray:none;stroke-opacity:1"
       d="m 453.39927,174.56982 h -2" /><path
       inkscape:connector-curvature="0"
       id="path344"
       style="fill:#000000;fill-opacity:1;fill-rule:nonzero;stroke:#000000;stroke-width:0.60000002;stroke-linecap:butt;stroke-linejoin:round;stroke-miterlimit:10;stroke-dasharray:none;stroke-opacity:1"
       d="m 453.39927,209.58702 h -2" /><path
       inkscape:connector-curvature="0"
       id="path346"
       style="fill:#000000;fill-opacity:1;fill-rule:nonzero;stroke:#000000;stroke-width:0.60000002;stroke-linecap:butt;stroke-linejoin:round;stroke-miterlimit:10;stroke-dasharray:none;stroke-opacity:1"
       d="m 453.39927,227.36802 h -2" /><path
       inkscape:connector-curvature="0"
       id="path348"
       style="fill:#000000;fill-opacity:1;fill-rule:nonzero;stroke:#000000;stroke-width:0.60000002;stroke-linecap:butt;stroke-linejoin:round;stroke-miterlimit:10;stroke-dasharray:none;stroke-opacity:1"
       d="m 453.39927,239.98383 h -2" /><path
       inkscape:connector-curvature="0"
       id="path350"
       style="fill:#000000;fill-opacity:1;fill-rule:nonzero;stroke:#000000;stroke-width:0.60000002;stroke-linecap:butt;stroke-linejoin:round;stroke-miterlimit:10;stroke-dasharray:none;stroke-opacity:1"
       d="m 453.39927,249.76941 h -2" /><path
       inkscape:connector-curvature="0"
       id="path352"
       style="fill:#000000;fill-opacity:1;fill-rule:nonzero;stroke:#000000;stroke-width:0.60000002;stroke-linecap:butt;stroke-linejoin:round;stroke-miterlimit:10;stroke-dasharray:none;stroke-opacity:1"
       d="m 453.39927,257.76482 h -2" /><path
       inkscape:connector-curvature="0"
       id="path354"
       style="fill:#000000;fill-opacity:1;fill-rule:nonzero;stroke:#000000;stroke-width:0.60000002;stroke-linecap:butt;stroke-linejoin:round;stroke-miterlimit:10;stroke-dasharray:none;stroke-opacity:1"
       d="m 453.39927,264.52483 h -2" /><path
       inkscape:connector-curvature="0"
       id="path356"
       style="fill:#000000;fill-opacity:1;fill-rule:nonzero;stroke:#000000;stroke-width:0.60000002;stroke-linecap:butt;stroke-linejoin:round;stroke-miterlimit:10;stroke-dasharray:none;stroke-opacity:1"
       d="m 453.39927,270.38063 h -2" /><path
       inkscape:connector-curvature="0"
       id="path358"
       style="fill:#000000;fill-opacity:1;fill-rule:nonzero;stroke:#000000;stroke-width:0.60000002;stroke-linecap:butt;stroke-linejoin:round;stroke-miterlimit:10;stroke-dasharray:none;stroke-opacity:1"
       d="m 453.39927,275.54581 h -2" /><path
       inkscape:connector-curvature="0"
       id="path360"
       style="fill:#000000;fill-opacity:1;fill-rule:nonzero;stroke:#000000;stroke-width:0.60000002;stroke-linecap:butt;stroke-linejoin:round;stroke-miterlimit:10;stroke-dasharray:none;stroke-opacity:1"
       d="m 453.39927,310.56302 h -2" /><g
       id="g376"><g
         id="g378"
         clip-path="url(#clipPath380)"><path
           d="m 466.85302,307.65157 2.70427,-1.91833 2.70428,-3.0032 1.35213,-1.86074 4.05641,-7.52328 2.70427,-6.28662 1.35214,-3.3942 1.35213,-3.73518 2.70428,-8.50073 1.35213,-4.08094 2.70428,-10.10359 2.70427,-13.33442 1.35213,-4.55326 2.70428,-11.43426 1.35213,-5.22554 5.40855,-23.83421 2.70427,-10.9109 2.70427,-13.00135 4.05641,-16.69662 1.35214,-6.58125 2.70427,-11.08778 1.35214,-4.37325 1.35213,-6.36026 1.35214,-3.71023 1.35213,-4.26231 1.35214,-3.37634 1.35214,-4.39442 1.35213,-3.58953 2.70427,-8.93019 1.35214,-3.648175 2.70427,-8.581335 2.70428,-7.122475 2.70427,-5.164265 2.70427,-2.595568 1.35214,-2.009609 1.35213,-1.556039 2.70428,-1.281544 2.70427,-1.524243 1.35213,-0.570033 1.35214,-0.418308 1.35214,-0.661405 1.35213,-0.27421 1.35214,0.35751 1.35213,-0.788922 1.35214,-0.436838 1.35214,0.179997 2.70427,-0.758232 4.05641,0.413848 1.35213,-0.331588 1.35214,0.337888 1.35214,-0.620309 1.35213,0.126219 1.35214,-0.915377 1.35213,-0.217236 1.35214,0.08829 1.35214,-0.410237 2.70427,-0.391385 1.35214,0.05957 1.35213,-0.242203 2.70427,0.126825 1.35214,-0.189952 1.35214,0.01198 1.35213,0.207049 1.35214,-0.360587 1.35214,-0.135888 1.35213,-0.0165 1.35214,-0.183171 1.35213,0.175108 2.70428,-0.167284 1.35213,0.148529 2.70428,-0.18321 2.70427,-0.01989 1.35213,0.145383 1.35214,-0.0043 1.35214,-0.169581 2.70427,0.134731 2.70427,0.07891 1.35214,0.34928 1.35213,-0.1981 1.35214,0.169737 4.05641,0.04743 1.35213,-0.25758 6.76068,0.04274 2.70428,0.07971 1.35213,0.08108 5.40855,-0.585282 4.05641,0.336446 4.0564,0.290095 4.05641,0.196902 1.35214,0.257138 1.35214,0.07503 1.35213,-0.17372 1.35214,0.02526 2.70427,-0.272419 2.70427,0.136721 1.35214,-0.132146 2.70427,0.06451 1.35214,-0.112402 2.70427,-0.0699 2.70427,-0.187755 1.35214,0.2133 1.35213,0.08977 2.70428,-0.316193 10.81709,-0.03553 2.70427,-0.221865 2.70427,-0.08935 2.70427,0.162278 8.11282,0.09319 2.70427,-0.08893 9.46496,0.292204 2.70427,-0.137118 2.70427,0.02905 4.05641,-0.04807 1.35214,0.07383 2.70427,-0.04901 2.70427,-0.06639 v 0"
           style="fill:none;stroke:#ff7f0e;stroke-width:2;stroke-linecap:square;stroke-linejoin:round;stroke-miterlimit:10;stroke-dasharray:none;stroke-opacity:1"
           id="path384"
           inkscape:connector-curvature="0" /></g></g><g
       id="g396"><g
         id="g398"
         clip-path="url(#clipPath400)"><path
           d="m 466.85302,297.80305 1.35214,-7.96836 1.35213,-2.28103 2.70428,-8.48995 1.35213,-5.33511 4.05641,-18.17889 1.35214,-2.73975 2.70427,-12.83124 1.35213,-7.75527 1.35214,-3.80374 2.70427,-12.68423 1.35214,-4.50503 1.35214,-4.1123 1.35213,-1.55352 1.35214,-10.21628 1.35213,-1.13532 1.35214,-3.73853 1.35214,-2.96265 1.35213,-3.38305 2.70428,-17.92301 1.35213,-1.75986 1.35214,-6.24275 1.35213,-2.86727 2.70428,-15.83535 1.35213,-1.56155 1.35214,-5.9005 1.35213,-0.44526 1.35214,-10.19557 1.35214,-0.46495 1.35213,-5.35212 1.35214,-4.40888 2.70427,-13.828563 1.35214,-3.375894 1.35213,-0.470613 1.35214,-6.467486 1.35214,1.046455 1.35213,-3.73417 1.35214,-1.035157 1.35213,-2.505289 1.35214,-1.632123 1.35214,0.437326 1.35213,3.246248 1.35214,4.29794 1.35214,-1.165043 1.35213,-3.992555 1.35214,6.59886 1.35214,-6.959566 1.35213,2.187042 1.35214,4.069512 1.35213,-0.806036 1.35214,-3.856951 1.35214,1.430743 1.35213,-2.382313 1.35214,-6.837743 1.35213,2.421794 1.35214,-2.408909 1.35214,-0.223102 1.35213,-2.033295 1.35214,0.310481 1.35213,1.299885 1.35214,0.402229 1.35214,5.02322 1.35213,-2.887465 1.35214,-0.397263 1.35214,-1.873435 1.35213,-0.90165 1.35214,0.292499 1.35213,8.212876 1.35214,-0.977415 1.35214,-7.396152 1.35213,-0.571564 1.35214,-1.220263 1.35213,1.563729 1.35214,-0.641947 1.35214,-0.889431 1.35213,0.469371 1.35214,-1.838964 1.35214,1.982536 2.70427,0.213396 1.35213,-2.889023 1.35214,2.021928 1.35214,-1.811271 1.35213,0.644781 1.35214,1.016353 1.35214,-3.197326 1.35213,2.93554 1.35214,-2.903397 1.35213,2.444727 1.35214,-1.724192 1.35214,-0.76764 1.35213,0.03712 1.35214,5.819094 1.35214,-3.688023 1.35213,1.239246 1.35214,-0.459401 1.35213,-1.584914 1.35214,-0.607899 1.35214,-0.102126 1.35213,1.641214 1.35214,-1.718501 1.35213,0.562787 1.35214,-1.074242 1.35214,-0.51055 1.35213,-0.262939 1.35214,0.833541 1.35213,3.061655 1.35214,-2.324949 1.35214,-1.877222 1.35213,-0.02802 1.35214,0.09068 1.35214,3.153803 1.35213,-0.627881 1.35214,-1.118281 1.35213,-1.853373 1.35214,2.060987 1.35214,-0.414535 1.35213,-1.440752 1.35214,1.992239 1.35214,-1.206675 1.35213,0.459415 1.35214,0.590783 1.35213,-1.562058 1.35214,0.607505 1.35214,0.922129 1.35213,-1.144264 1.35214,0.815063 1.35213,0.276984 1.35214,0.558324 2.70427,-1.635618 1.35214,-1.615294 1.35214,1.684947 1.35213,-0.220202 1.35214,0.18558 1.35213,1.014262 1.35214,-1.504484 1.35214,0.165853 1.35213,-0.652432 1.35214,1.678073 1.35213,-0.09541 1.35214,-2.367724 1.35214,0.552121 1.35213,0.169488 1.35214,1.081662 1.35214,-1.200416 1.35213,1.709475 1.35214,-1.08204 1.35213,-0.624476 1.35214,1.073833 1.35214,-1.096427 1.35213,-1.709515 1.35214,0.740248 1.35213,-0.03397 1.35214,0.816493 1.35214,0.383893 1.35213,0.262888 2.70428,-0.538458 1.35213,0.0096 1.35214,-0.341524 1.35213,-1.277316 1.35214,0.299839 2.70427,0.982338 1.35214,1.079457 1.35214,-0.810794 2.70427,-0.426207 1.35213,0.226497 1.35214,0.389783 1.35214,-0.389496 1.35213,1.515225 1.35214,-1.987821 2.70427,0.09434 1.35214,0.870493 2.70427,-0.972253 1.35214,0.194423 5.40854,0.147907 1.35214,-0.639753 1.35213,-0.31516 1.35214,0.02859 1.35214,1.042721 1.35213,0.890888 1.35214,-1.34509 1.35213,0.43659 1.35214,-0.614892 v 0"
           style="fill:none;stroke:#ff7f0e;stroke-width:2;stroke-linecap:butt;stroke-linejoin:round;stroke-miterlimit:10;stroke-dasharray:5.6, 2.4;stroke-dashoffset:0;stroke-opacity:1"
           id="path404"
           inkscape:connector-curvature="0" /></g></g><g
       id="g406"
       style="stroke:#736eb3;stroke-opacity:1"><g
         id="g408"
         clip-path="url(#clipPath410)"
         style="stroke:#736eb3;stroke-opacity:1"><path
           d="m 479.02225,273.99988 13.52136,-29.10145 13.52136,-46.80034 13.52136,-17.5778 13.52136,-9.06945 13.52137,-8.05257 13.52136,-5.24207 13.52136,-4.33102 13.52136,-3.62389 13.52136,-2.21805 13.52136,-1.93978 13.52137,-0.85412 13.52136,-1.5224 13.52136,-1.03454 13.52136,0.29781 13.52136,-0.76098 13.52136,-0.98096 13.52137,-2.73314 13.52136,-1.48765 13.52136,-1.35494"
           style="fill:none;stroke:#736eb3;stroke-width:2;stroke-linecap:butt;stroke-linejoin:round;stroke-miterlimit:10;stroke-dasharray:9.6, 2.39999999999999991, 1.60000000000000009, 2.39999999999999991;stroke-dashoffset:0;stroke-opacity:1"
           id="path414"
           inkscape:connector-curvature="0" /></g></g><path
       inkscape:connector-curvature="0"
       id="path418"
       style="fill:none;stroke:#000000;stroke-width:0.80000001;stroke-linecap:square;stroke-linejoin:miter;stroke-miterlimit:10;stroke-dasharray:none;stroke-opacity:1"
       d="m 453.39927,49.16875 v 271.8" /><path
       inkscape:connector-curvature="0"
       id="path420"
       style="fill:none;stroke:#000000;stroke-width:0.80000001;stroke-linecap:square;stroke-linejoin:miter;stroke-miterlimit:10;stroke-dasharray:none;stroke-opacity:1"
       d="m 749.38188,49.16875 v 271.8" /><path
       inkscape:connector-curvature="0"
       id="path422"
       style="fill:none;stroke:#000000;stroke-width:0.80000001;stroke-linecap:square;stroke-linejoin:miter;stroke-miterlimit:10;stroke-dasharray:none;stroke-opacity:1"
       d="M 453.39927,49.16875 H 749.38188" /><path
       inkscape:connector-curvature="0"
       id="path424"
       style="fill:none;stroke:#000000;stroke-width:0.80000001;stroke-linecap:square;stroke-linejoin:miter;stroke-miterlimit:10;stroke-dasharray:none;stroke-opacity:1"
       d="M 453.39927,320.96875 H 749.38188" /><path
       inkscape:connector-curvature="0"
       id="path426"
       style="fill:#ffffff;fill-opacity:0.5;fill-rule:nonzero;stroke:#cccccc;stroke-width:0.99999994;stroke-linecap:butt;stroke-linejoin:miter;stroke-miterlimit:10;stroke-dasharray:none;stroke-opacity:0.5"
       d="m 547.77277,239.89298 h 193.78148 c 2.17136,0 3.25704,0.63776 3.25704,1.91326 v 69.24925 c 0,1.27551 -1.08568,1.91326 -3.25704,1.91326 H 547.77277 c -2.17137,0 -3.25704,-0.63775 -3.25704,-1.91326 v -69.24925 c 0,-1.2755 1.08567,-1.91326 3.25704,-1.91326 z" /><path
       inkscape:connector-curvature="0"
       id="path452"
       style="fill:none;stroke:#736eb3;stroke-width:2;stroke-linecap:butt;stroke-linejoin:round;stroke-miterlimit:10;stroke-dasharray:9.60000001, 2.39999999999999991, 1.60000001000000003, 2.39999999999999991;stroke-dashoffset:0;stroke-opacity:1"
       d="m 550.99438,301.54146 h 28.48956" /><text
       id="text454"
       style="font-variant:normal;font-weight:normal;line-height:0%;font-family:'DejaVu Sans';-inkscape-font-specification:DejaVuSans;writing-mode:lr-tb;fill:#000000;fill-opacity:1;fill-rule:nonzero;stroke:none"
       transform="scale(1,-1)"
       x="586.19452"
       y="-295.94165"><tspan
         style="font-size:16px;line-height:1.25"
         id="tspan456"
         sodipodi:role="line"
         y="-295.94165"
         x="586.19452 600.0025 611.17053 624.97852">MCMC</tspan></text>
<path
       inkscape:connector-curvature="0"
       id="path434"
       style="fill:none;stroke:#ff7f0e;stroke-width:2;stroke-linecap:square;stroke-linejoin:round;stroke-miterlimit:10;stroke-dasharray:none;stroke-opacity:1"
       d="m 550.99438,277.76156 h 28.48956" /><text
       id="text436"
       style="font-variant:normal;font-weight:normal;line-height:0%;font-family:'DejaVu Sans';-inkscape-font-specification:DejaVuSans;writing-mode:lr-tb;fill:#000000;fill-opacity:1;fill-rule:nonzero;stroke:none"
       transform="scale(1,-1)"
       x="586.19452"
       y="-272.16165"><tspan
         style="font-size:16px;line-height:1.25"
         id="tspan438"
         sodipodi:role="line"
         y="-272.16165"
         x="586.19452 597.13855 601.85852 615.6665 626.83453">VIMCO</tspan></text>
<path
       inkscape:connector-curvature="0"
       id="path446"
       style="fill:none;stroke:#ff7f0e;stroke-width:2;stroke-linecap:butt;stroke-linejoin:round;stroke-miterlimit:10;stroke-dasharray:5.60000001, 2.4;stroke-dashoffset:0;stroke-opacity:1"
       d="m 550.99438,254.79281 h 28.48956" /><text
       id="text448"
       style="font-variant:normal;font-weight:normal;line-height:0%;font-family:'DejaVu Sans';-inkscape-font-specification:DejaVuSans;writing-mode:lr-tb;fill:#000000;fill-opacity:1;fill-rule:nonzero;stroke:none"
       transform="scale(1,-1)"
       x="586.19452"
       y="-249.19298"><tspan
         style="font-size:16px;line-height:1.25"
         id="tspan450"
         sodipodi:role="line"
         y="-249.19298"
         x="586.19452 597.31451 613.13855">RWS</tspan></text>
<g
       transform="matrix(-0.8,0,0,-0.40427262,1084.2882,656.35009)"
       id="g3953"><path
         sodipodi:nodetypes="cczc"
         inkscape:connector-curvature="0"
         id="path28742"
         d="m 551.73328,916.25711 c -8.039,-0.18458 -7.56194,14.93869 -6.56096,22.73108 0.87781,9.24648 1.7953,18.65139 0.10331,22.91749 -1.69198,4.2661 -2.91568,4.97046 -5.06212,5.66648"
         style="fill:none;stroke:#000000;stroke-width:1.40672052px;stroke-linecap:butt;stroke-linejoin:miter;stroke-opacity:1" /><path
         sodipodi:nodetypes="cczc"
         inkscape:connector-curvature="0"
         id="path28742-0"
         d="m 551.73328,1018.5611 c -8.039,0.1846 -7.56194,-14.9387 -6.56096,-22.7311 0.87781,-9.24648 1.7953,-18.65139 0.10331,-22.91749 -1.69198,-4.2661 -2.91568,-4.97046 -5.06212,-5.66648"
         style="fill:none;stroke:#000000;stroke-width:1.40672052px;stroke-linecap:butt;stroke-linejoin:miter;stroke-opacity:1" /></g><text
       xml:space="preserve"
       style="font-style:normal;font-variant:normal;font-weight:normal;font-stretch:normal;line-height:0%;font-family:Lato;-inkscape-font-specification:'Lato, Normal';text-align:start;letter-spacing:0px;word-spacing:0px;writing-mode:lr-tb;text-anchor:start;fill:#000000;fill-opacity:1;stroke:none;stroke-width:1px;stroke-linecap:butt;stroke-linejoin:miter;stroke-opacity:1"
       x="658.99597"
       y="-267.04889"
       id="text4982"
       transform="scale(1,-1)"><tspan
         sodipodi:role="line"
         id="tspan4984"
         x="658.99597"
         y="-267.04889"
         style="font-style:italic;font-size:18px;line-height:100%">Variational</tspan><tspan
         sodipodi:role="line"
         x="658.99597"
         y="-249.0489"
         id="tspan4986"
         style="font-style:italic;font-size:18px;line-height:100%">inference</tspan></text>
<text
       xml:space="preserve"
       style="font-style:normal;font-variant:normal;font-weight:normal;font-stretch:normal;line-height:0%;font-family:Lato;-inkscape-font-specification:'Lato, Normal';text-align:start;letter-spacing:0px;word-spacing:0px;writing-mode:lr-tb;text-anchor:start;fill:#000000;fill-opacity:1;stroke:none;stroke-width:1px;stroke-linecap:butt;stroke-linejoin:miter;stroke-opacity:1"
       x="24.630144"
       y="409.52707"
       id="text18061"
       transform="matrix(0,0.99999991,1.0000001,0,0,0)"><tspan
         sodipodi:role="line"
         id="tspan18063"
         x="24.630144"
         y="409.52707"
         style="font-size:21.63245201px;line-height:1.25">KL divergence to ground truth</tspan></text>
</g></svg>